HIERARCHY
ROOT Hips
{
  OFFSET 0 0 0
  CHANNELS 6 Xposition Yposition Zposition Zrotation Xrotation Yrotation
  JOINT Spine
  {
    OFFSET 0.00000000 0.00000000 0.00000000
    CHANNELS 3 Zrotation Xrotation Yrotation
    JOINT Spine1
    {
      OFFSET 0.19000000 0.00000000 0.00000000
      CHANNELS 3 Zrotation Xrotation Yrotation
      JOINT Neck
      {
        OFFSET 0.22500000 0.00600000 0.00000000
        CHANNELS 3 Zrotation Xrotation Yrotation
        JOINT Head
        {
          OFFSET 0.14000000 0.00030878 0.00000000
          CHANNELS 3 Zrotation Xrotation Yrotation
          End Site
          {
            OFFSET 0.17000000 0.00000000 0.00000000
          }
        }
      }
      JOINT LeftShoulder
      {
        OFFSET 0.19800000 0.03700000 0.04300000
        CHANNELS 3 Zrotation Xrotation Yrotation
        JOINT LeftArm
        {
          OFFSET 0.08000000 0.00000000 0.00000000
          CHANNELS 3 Zrotation Xrotation Yrotation
          JOINT LeftForeArm
          {
            OFFSET 0.15200000 0.00000000 0.00000000
            CHANNELS 3 Zrotation Xrotation Yrotation
            JOINT LeftHand
            {
              OFFSET 0.17800000 0.00000000 0.00000000
              CHANNELS 3 Zrotation Xrotation Yrotation
              End Site
              {
                OFFSET 0.07200000 0.00000000 0.00000000
              }
            }
          }
        }
      }
      JOINT RightShoulder
      {
        OFFSET 0.19800000 0.03700000 -0.04300000
        CHANNELS 3 Zrotation Xrotation Yrotation
        JOINT RightArm
        {
          OFFSET 0.08000000 0.00000000 0.00151654
          CHANNELS 3 Zrotation Xrotation Yrotation
          JOINT RightForeArm
          {
            OFFSET 0.15200000 0.00000000 0.00000000
            CHANNELS 3 Zrotation Xrotation Yrotation
            JOINT RightHand
            {
              OFFSET 0.17800000 0.00000000 0.00000000
              CHANNELS 3 Zrotation Xrotation Yrotation
              End Site
              {
                OFFSET 0.07200000 0.00000000 0.00000000
              }
            }
          }
        }
      }
    }
  }
  JOINT LeftUpLeg
  {
    OFFSET 0.05984250 -0.07666000 0.04788790
    CHANNELS 3 Zrotation Xrotation Yrotation
    JOINT LeftLeg
    {
      OFFSET 0.16000000 0.00000000 0.00000000
      CHANNELS 3 Zrotation Xrotation Yrotation
      JOINT LeftFoot
      {
        OFFSET 0.18000000 0.00000000 0.00000000
        CHANNELS 3 Zrotation Xrotation Yrotation
        End Site
        {
          OFFSET 0.00000000 -0.10800000 0.00000000
        }
      }
    }
  }
  JOINT RightUpLeg
  {
    OFFSET 0.05984250 -0.07665980 -0.04788790
    CHANNELS 3 Zrotation Xrotation Yrotation
    JOINT RightLeg
    {
      OFFSET 0.16000000 0.00000000 0.00000000
      CHANNELS 3 Zrotation Xrotation Yrotation
      JOINT RightFoot
      {
        OFFSET 0.18000000 0.00000000 0.00000000
        CHANNELS 3 Zrotation Xrotation Yrotation
        End Site
        {
          OFFSET 0.00000000 -0.10800000 0.00000000
        }
      }
    }
  }
  JOINT Tail
  {
    OFFSET 0.06836960 -0.00722574 0.00000000
    CHANNELS 3 Zrotation Xrotation Yrotation
    JOINT Tail1
    {
      OFFSET 0.12000000 0.00000000 0.00000000
      CHANNELS 3 Zrotation Xrotation Yrotation
      End Site
      {
        OFFSET 0.12000000 0.00000000 0.00000000
      }
    }
  }
}
MOTION
Frames:	21
Frame Time:	0.0166667
-0.3081464 0.4573390 -0.4826104 0.00218 1.76528 -19.7233 177.692 -1.46124 -3.35817 17.9398 -1.5017 7.05347 12.5998 2.12747 15.291 -104.859 42.4366 145.8 -111.116 -37.1827 -138.863 117.958 -19.3308 -132.482 -77.1418 3.22406 11.5359 -20.8697 4.33239 -18.5894 76.9884 -28.3486 46.8311 70.7411 -16.0203 -29.1711 -78.0887 16.3951 -9.08601 28.8536 -3.11184 -13.2592 -128.225 -3.73247 -15.0007 72.4914 23.5672 10.1878 42.3329 -5.39672 -8.90779 -129.247 4.5904 0.579483 95.2169 3.41837 -4.48029 36.3834 -1.37107 -3.07594 -23.2966 -19.7962 11.615 6.63417 10.5244 3.69368 
-0.3125692 0.4561440 -0.4893120 -1.39405 2.31263 -17.3394 179.1 -1.18695 -2.00166 17.6517 -1.36912 8.37537 13.238 2.39758 16.4157 -104.553 42.8863 146.414 -110.968 -36.7584 -139.298 115.886 -19.565 -133.365 -77.072 1.8325 11.7192 -21.1002 4.17258 -17.5545 76.1254 -30.0268 47.6221 72.0653 -14.0023 -31.6777 -80.6935 25.6922 -10.8015 38.0322 -4.06617 -8.96513 -126.732 -3.21774 -15.5186 74.559 23.7009 9.25507 40.7114 -5.06018 -8.57229 -130.731 1.20356 2.0392 93.6479 2.07385 -4.17378 33.7136 -1.52792 -3.25648 -17.1519 -18.2889 21.3077 7.84925 6.34587 4.54889 
-0.3169102 0.4553320 -0.4961488 -2.66536 2.78940 -14.8912 -179.36 -0.773354 -0.366559 16.8629 -1.19143 9.42381 14.3969 2.69472 17.6093 -104.558 43.6785 146.722 -110.892 -36.1867 -140.224 114.023 -19.7359 -134.502 -76.8645 1.81952 11.6987 -21.8226 4.13486 -16.922 75.8424 -31.126 49.0768 73.3392 -11.5178 -35.099 -82.0542 32.9163 -13.1929 43.7804 -4.09607 -5.43742 -125.409 -2.38698 -16.2806 76.1069 24.0787 8.49476 40.1589 -4.8315 -8.32457 -131.769 -2.68604 3.21832 90.5431 -0.306491 -3.70984 33.3747 -1.45245 -3.2073 -12.0066 -16.9032 30.878 8.4363 3.27615 5.34474 
-0.3212888 0.4544740 -0.5034965 -3.89814 3.20511 -12.6055 -177.798 -0.198399 0.93445 15.8907 -0.895155 10.7336 15.7955 2.77115 18.6844 -104.285 44.6591 146.743 -110.946 -35.7574 -141.224 111.854 -19.768 -135.193 -76.5006 1.82439 11.6037 -22.3112 3.95765 -15.9829 75.8291 -31.7396 50.3468 74.7963 -8.53188 -37.9698 -82.7517 35.5296 -16.0231 44.3443 -4.21446 -6.03536 -124.069 -1.41602 -17.1755 77.4136 24.772 7.78801 39.7194 -4.641 -8.11543 -132.529 -6.76727 3.82616 86.7873 -2.49843 -2.79859 36.0464 -1.2455 -3.08462 -7.81426 -15.8341 40.2091 8.54797 1.05732 6.18243 
-0.3257657 0.4533370 -0.5110758 -5.18243 3.52275 -10.5506 -176.363 0.410556 2.00786 15.1197 -0.566647 11.9907 16.9303 2.81579 19.7108 -103.745 45.7139 146.949 -111.372 -35.7677 -142.315 109.584 -20.034 -135.746 -76.0948 1.7056 11.4031 -22.4438 3.72506 -15.0534 75.8286 -32.0623 51.015 76.9913 -4.65838 -41.1676 -83.4835 34.8825 -18.1917 42.4027 -4.70938 -9.7812 -122.778 -0.311673 -17.9224 79.2864 24.754 6.81265 38.8867 -4.36399 -7.81678 -133.086 -10.0006 4.16311 83.0452 -3.68487 -1.6786 39.8655 -1.10031 -3.09848 -4.45985 -15.152 49.096 8.53023 -0.569269 7.21288 
-0.3301760 0.4522930 -0.5187996 -6.41729 3.68395 -8.59218 -175.325 0.970322 3.02218 14.8961 -0.245689 13.2203 18.2356 3.03532 20.7559 -103.948 46.7827 146.692 -111.767 -35.6435 -143.591 108.249 -20.1473 -136.739 -75.5956 2.33984 11.1325 -22.8961 3.72355 -14.9257 75.9352 -32.1638 51.5873 78.9547 -0.782274 -44.6373 -85.0337 27.6807 -18.7134 34.7605 -4.61483 -18.8033 -121.403 0.699802 -18.7099 80.7127 24.7332 5.95436 38.2653 -4.14027 -7.55026 -133.299 -11.5889 5.31925 78.9076 -3.71133 -1.16533 44.3833 -1.12826 -3.28422 -2.39979 -15.4886 56.8356 8.72395 -1.9275 8.44238 
-0.3343240 0.4518880 -0.5267229 -7.66316 3.83017 -6.91586 -174.693 1.50541 3.56452 15.4461 0.190425 14.78 19.5957 3.30666 21.537 -104.557 47.7263 146.137 -112.095 -35.4307 -144.872 107.768 -19.8451 -137.87 -74.968 2.9341 10.9172 -23.1231 3.78439 -15.1202 75.8863 -32.3485 51.7953 79.1074 2.80939 -46.4752 -86.045 18.2298 -19.0868 23.8077 -2.09681 -25.8384 -119.845 1.6413 -19.7589 81.5734 24.659 5.33388 37.8183 -3.99022 -7.36242 -132.849 -12.0998 6.05136 74.5855 -1.82604 -0.618368 48.8399 -1.41901 -3.71667 -1.19566 -16.8653 63.706 9.45051 -3.41219 9.97693 
-0.3386004 0.4519380 -0.5346980 -8.63023 3.77263 -5.56158 -174.674 1.89648 3.85743 16.5165 0.617746 16.2988 21.2261 3.80663 22.3002 -105.779 48.7516 145.452 -112.384 -35.4933 -145.475 107.915 -19.7336 -138.291 -73.8442 3.56471 10.4707 -23.0854 3.85137 -15.351 75.9668 -32.1943 51.7575 77.7279 6.55503 -47.6313 -85.9042 10.9691 -19.5542 14.4775 0.885552 -25.7742 -118.474 2.52329 -20.4649 82.0947 24.4972 4.74103 37.7232 -3.91937 -7.27809 -132.373 -11.847 6.26785 70.6874 0.968374 -0.105547 52.8494 -1.76169 -4.19111 -1.12761 -19.4594 69.3743 10.7206 -5.43277 11.9267 
-0.3429756 0.4516510 -0.5428920 -9.43200 3.59454 -4.60127 -174.915 2.20312 3.83271 17.7734 1.07688 17.6869 22.842 4.51048 23.3637 -107.238 50.1729 144.914 -112.533 -35.6314 -145.561 108.577 -20.0296 -138.318 -72.7023 4.4832 9.90356 -23.0174 4.04398 -16 76.3802 -31.6179 52.0077 75.9989 10.1646 -48.7798 -84.6272 9.97894 -20.0408 9.64894 1.9595 -21.2797 -117.306 3.33301 -20.7976 82.6837 24.1177 4.05468 38.1168 -3.85086 -7.17175 -131.82 -10.8092 6.8253 67.8041 2.24827 -0.402438 55.7822 -1.83021 -4.31518 -1.99999 -23.3731 73.7506 12.3083 -8.35939 14.1388 
-0.3469341 0.4508970 -0.5516145 -10.3177 3.53214 -4.09250 -175.093 2.54537 3.25954 19.151 1.69108 19.2957 24.113 5.25365 24.1 -108.477 51.295 144.827 -112.496 -35.7093 -145.306 108.82 -20.1196 -138.084 -72.0808 5.09434 9.49069 -22.7773 3.93213 -15.8346 76.9464 -30.8897 52.5083 72.9708 12.672 -48.7558 -83.2581 11.8015 -20.1742 8.30953 1.5173 -14.2323 -116.071 4.17997 -21.263 83.4125 23.5569 3.38186 38.7154 -3.75087 -7.01457 -130.942 -9.49077 7.11772 67.4429 2.10294 -1.17673 55.224 -1.72997 -4.16393 -3.59039 -28.6486 76.5905 13.9064 -12.4695 16.3066 
-0.3506768 0.4499960 -0.5610650 -11.2252 3.33121 -3.81858 -175.123 2.8505 2.71615 20.4095 2.27712 20.5601 25.6618 6.0422 24.7724 -110.271 51.6146 144.128 -112.572 -35.9878 -144.922 108.463 -20.2146 -137.448 -71.6055 5.6493 9.17303 -22.9146 3.70501 -15.1968 77.3525 -30.2572 52.6525 69.2149 14.2134 -46.7467 -82.9966 10.4659 -19.527 5.77446 1.48752 -9.80254 -114.786 4.96768 -21.7483 83.9696 23.1688 2.7918 39.5029 -3.64312 -6.84455 -130.025 -8.6423 6.86115 69.6421 2.07635 -1.65955 52.2024 -1.78982 -4.12957 -6.02641 -34.6086 77.3917 15.3489 -17.5586 18.1301 
-0.3546577 0.4497230 -0.5710970 -11.9419 2.89692 -3.86165 -175.082 3.14918 2.13584 21.429 2.84575 21.6426 27.0869 6.85734 25.4797 -112.179 51.9306 143.452 -112.626 -36.1908 -144.641 108.979 -20.9412 -137.309 -71.1117 5.95709 8.78688 -22.6703 3.76986 -15.4516 77.578 -29.9217 52.7741 64.9622 13.9194 -43.914 -83.0364 6.63168 -17.6835 2.24731 1.48209 -6.15689 -113.623 5.53078 -22.0515 84.2867 22.6214 2.29747 40.3382 -3.48479 -6.61144 -129.197 -8.64709 6.03621 71.8898 2.14212 -1.43994 49.888 -1.92383 -4.21547 -10.2062 -40.764 74.9826 16.206 -23.4482 19.2796 
-0.3590803 0.4503980 -0.5812060 -12.2421 2.19556 -4.26449 -175.163 3.35104 1.50661 22.2526 3.30051 22.6367 28.1918 7.80004 25.8931 -114.139 52.0432 143.272 -112.486 -36.2471 -144.177 110.13 -21.8394 -137.53 -70.3601 6.89867 8.31989 -22.7642 3.89975 -15.8713 77.9176 -29.5795 53.3275 61.2505 12.5608 -42.5217 -82.1241 1.87058 -15.2519 -1.13893 1.41892 -3.87553 -112.682 5.61719 -22.1315 84.0423 22.4347 2.06262 41.7297 -3.39657 -6.46739 -128.719 -8.8586 5.75563 73.1374 1.11166 -1.39759 48.7155 -1.83182 -4.0829 -16.8548 -46.1396 68.6685 15.8701 -29.4568 19.2653 
-0.3639486 0.4518340 -0.5906553 -12.1045 1.44151 -4.96790 -175.341 3.53786 1.04302 22.7714 3.6674 23.2894 29.369 8.8601 26.1301 -116.608 51.8582 142.943 -112.351 -36.2812 -143.769 111.023 -22.634 -137.775 -69.5992 7.64751 7.94394 -23.113 4.09819 -16.3744 78.2651 -29.2057 53.8638 59.04 11.4552 -42.5129 -80.1695 -3.30627 -12.721 -4.08663 1.50314 -3.36661 -112.058 5.45337 -21.6553 83.5001 21.3816 1.73863 43.5935 -3.19431 -6.16484 -128.803 -8.72124 5.75246 73.8518 0.204296 -1.57771 48.6387 -1.69191 -3.93475 -26.2438 -49.6169 57.8262 14.0129 -34.4723 17.7227 
-0.3689284 0.4545000 -0.5992711 -11.6175 0.90705 -5.99477 -175.47 3.83404 0.677307 23.015 4.07958 23.5609 30.4144 9.88487 26.1667 -119.23 51.0533 142.363 -112.216 -36.1498 -143.698 111.467 -22.9916 -138.272 -69.2621 7.26106 7.90644 -23.0058 4.30276 -16.9097 78.5899 -28.8839 54.4474 57.1128 9.17379 -43.3974 -77.3171 -6.13075 -9.15644 -4.29069 1.16142 -2.47101 -111.712 5.0973 -21.2331 82.5589 19.5831 1.55036 45.7605 -2.91593 -5.76048 -129.016 -8.08357 5.66183 73.7299 -0.282253 -1.82095 49.25 -1.51977 -3.79834 -36.7717 -50.7321 44.5509 10.4606 -36.4038 14.603 
-0.3740904 0.4580010 -0.6071900 -10.6826 0.59990 -7.31005 -175.933 4.18178 0.578678 23.4298 4.53747 23.2652 30.9195 10.8404 26.1154 -121.252 50.4317 142.462 -111.972 -35.7247 -143.949 111.743 -22.6524 -139.24 -69.1581 6.60902 8.08282 -22.8014 4.46177 -17.3621 78.7169 -28.8261 54.8344 53.3155 4.82816 -43.6883 -74.1898 -7.04016 -4.9278 -3.59708 0.32037 0.430755 -111.868 4.58693 -21.2085 81.47 17.8202 1.74774 47.917 -2.71944 -5.49047 -129.144 -7.27539 5.60283 72.6148 -1.33955 -2.14675 50.0447 -1.17281 -3.49565 -46.0247 -49.2426 31.3065 5.14192 -29.2788 9.88844 
-0.3799195 0.4612370 -0.6144258 -9.29560 0.52341 -8.99327 -176.92 4.61349 0.852756 24.0674 5.06734 22.2841 31.2182 11.634 26.1233 -122.72 50.4784 142.887 -111.612 -35.2876 -143.927 112.272 -22.3315 -139.761 -68.5843 5.9542 7.92039 -22.4216 4.52971 -17.5226 78.6849 -28.8208 54.6927 51.2372 2.17438 -43.6744 -74.7793 -8.62242 -4.6111 -7.55511 -0.310069 4.10698 -112.527 4.14622 -20.9473 80.9708 15.2483 1.89294 48.9689 -2.45728 -5.17415 -129.388 -6.60609 5.34324 71.0009 -2.62621 -2.40363 50.921 -0.782734 -3.13549 -52.1718 -46.0531 20.277 0.482567 -10.7614 5.70138 
-0.3861295 0.4635780 -0.6212519 -7.85011 0.62083 -10.9653 -178.111 5.11286 1.43895 24.9616 5.65878 20.7742 31.4351 12.1639 25.686 -123.903 49.7315 142.833 -111.288 -35.1468 -143.38 113.112 -22.3679 -139.709 -67.2484 5.83876 7.52302 -22.4738 4.50401 -17.2568 78.6991 -28.4684 53.9497 52.9406 3.884 -44.707 -79.0478 -10.0777 -7.76985 -11.6526 -0.19178 4.89077 -113.651 3.55511 -20.7131 81.9849 12.0188 2.01658 47.5683 -2.09779 -4.73844 -129.453 -6.29181 4.66469 69.3408 -4.14077 -2.38324 51.4246 -0.417489 -2.75387 -54.9412 -42.1078 11.7503 -1.48543 13.1546 2.98973 
-0.3922924 0.4648420 -0.6278834 -6.57490 0.61241 -12.9984 -179.427 5.60438 2.07075 26.1156 6.28161 19.5019 31.8117 12.3894 25.0395 -125.036 48.9646 142.061 -110.92 -35.0005 -142.713 114.199 -22.4104 -139.672 -65.5378 5.71766 7.04811 -22.1803 4.30076 -16.5353 78.6389 -28.0961 52.8349 54.4968 4.93848 -45.8178 -82.7514 -8.75578 -9.25047 -10.5446 -0.355463 5.91939 -115.51 2.62578 -20.4256 84.6391 9.31399 2.17337 44.7619 -1.78983 -4.32506 -129.633 -6.22765 3.60569 68.4462 -5.37065 -2.08984 51.4703 -0.127621 -2.45646 -54.11 -37.6802 5.83456 -0.853364 29.6505 0.735421 
-0.3983532 0.4654280 -0.6346158 -5.51896 0.35582 -15.1026 179.374 5.87912 2.50992 27.343 6.70653 18.5508 32.2048 12.5985 24.2361 -126.354 48.2786 141.109 -110.544 -34.957 -141.801 115.381 -22.8778 -139.868 -63.8108 5.40326 6.4606 -21.499 4.20201 -16.1999 78.5964 -27.7364 51.7944 55.845 4.77006 -47.583 -86.1688 -6.76486 -10.4803 -10.0342 -0.740173 7.65708 -117.589 1.16736 -20.0801 87.6734 9.22736 2.46329 41.5513 -1.8409 -4.32128 -129.982 -6.00772 2.70868 68.1694 -5.89538 -1.88527 51.2104 0.0833638 -2.24538 -50.7861 -33.1888 1.99516 1.09725 33.6515 -1.22315 
-0.4044397 0.4650730 -0.6416660 -4.48106 -0.20364 -17.1202 178.187 5.90333 2.83829 28.4489 6.86053 17.7411 32.2763 13.1012 23.4852 -127.997 47.7169 140.536 -110.469 -35.345 -140.797 116.494 -24.2391 -140.315 -61.984 5.51184 5.82614 -21.0961 4.26586 -16.3645 78.6836 -27.1748 50.7681 57.17 5.00743 -48.4754 -89.3962 -5.20089 -12.9779 -11.7053 -0.738204 8.10479 -120.15 -0.62575 -19.7166 90.4547 11.7698 3.00568 38.0413 -2.24488 -4.81072 -130.594 -5.86687 2.02596 68.326 -6.16219 -1.72736 50.4822 0.250818 -2.06048 -46.1405 -28.7742 -0.227142 3.04206 32.5695 -2.67116 
